<mxfile host="app.diagrams.net" modified="2023-07-15T20:03:03.398Z" agent="Mozilla/5.0 (Macintosh; Intel Mac OS X 10_15_7) AppleWebKit/537.36 (KHTML, like Gecko) Chrome/114.0.0.0 Safari/537.36" etag="30u-birQMI48nWAQuClR" version="21.2.3" type="github">
  <diagram name="Page-1" id="OcyrxSaOLKTO3twHUCwc">
    <mxGraphModel dx="2213" dy="2031" grid="1" gridSize="10" guides="1" tooltips="1" connect="1" arrows="1" fold="1" page="1" pageScale="1" pageWidth="850" pageHeight="1100" math="0" shadow="0">
      <root>
        <mxCell id="0" />
        <mxCell id="1" parent="0" />
        <mxCell id="02symyp6Dsfdwm89dj8b-154" value="RPC Data sources" style="swimlane;whiteSpace=wrap;html=1;" vertex="1" parent="1">
          <mxGeometry x="-345" y="-160" width="730" height="490" as="geometry" />
        </mxCell>
        <mxCell id="02symyp6Dsfdwm89dj8b-8" value="&amp;nbsp; &amp;nbsp;- Non-archive MAY answer&lt;br&gt;&amp;nbsp; &amp;nbsp;- MATBE indexers can answer&lt;br&gt;&amp;nbsp; &amp;nbsp;- Query limited by block range&lt;br&gt;&amp;nbsp; &amp;nbsp;- Multiple contracts at once&lt;br&gt;&amp;nbsp; &amp;nbsp;- Multiple event definitions at once&lt;br&gt;&amp;nbsp; &amp;nbsp;- Multicall3 is irrelevant? -&amp;gt; maybe not" style="shape=note;strokeWidth=2;fontSize=9;size=20;whiteSpace=wrap;html=1;fillColor=#fff2cc;strokeColor=#d6b656;fontColor=#666600;align=left;" vertex="1" parent="02symyp6Dsfdwm89dj8b-154">
          <mxGeometry x="270" y="40" width="190" height="80" as="geometry" />
        </mxCell>
        <mxCell id="02symyp6Dsfdwm89dj8b-6" value="Events" style="shape=cylinder3;whiteSpace=wrap;html=1;boundedLbl=1;backgroundOutline=1;size=15;" vertex="1" parent="02symyp6Dsfdwm89dj8b-154">
          <mxGeometry x="335" y="175" width="60" height="70" as="geometry" />
        </mxCell>
        <mxCell id="02symyp6Dsfdwm89dj8b-16" value="&amp;nbsp; &amp;nbsp; - At-most-once delivery&lt;br&gt;&amp;nbsp; &amp;nbsp; - Not available or reliable for every chain&lt;br&gt;&amp;nbsp; &amp;nbsp; - We can&#39;t know if we have all events" style="shape=note;strokeWidth=2;fontSize=9;size=20;whiteSpace=wrap;html=1;fillColor=#fff2cc;strokeColor=#d6b656;fontColor=#666600;align=left;" vertex="1" parent="02symyp6Dsfdwm89dj8b-154">
          <mxGeometry x="470" y="40" width="180" height="60" as="geometry" />
        </mxCell>
        <mxCell id="02symyp6Dsfdwm89dj8b-15" value="&amp;nbsp; Events WS" style="strokeWidth=2;html=1;shape=mxgraph.flowchart.direct_data;whiteSpace=wrap;align=left;" vertex="1" parent="02symyp6Dsfdwm89dj8b-154">
          <mxGeometry x="470" y="175" width="100" height="40" as="geometry" />
        </mxCell>
        <mxCell id="02symyp6Dsfdwm89dj8b-22" value="&amp;nbsp; &amp;nbsp; - Get the timestamp of a block&lt;br&gt;&amp;nbsp; &amp;nbsp; - MAYBE explorers can answer&lt;br&gt;&amp;nbsp; &amp;nbsp; - Multicall3 can answer (sometimes)&lt;br&gt;&amp;nbsp; &amp;nbsp; - Unlikely to fail&lt;br&gt;&amp;nbsp; &amp;nbsp; - Response is large (in Mb)" style="shape=note;strokeWidth=2;fontSize=9;size=20;whiteSpace=wrap;html=1;fillColor=#fff2cc;strokeColor=#d6b656;fontColor=#666600;align=left;" vertex="1" parent="02symyp6Dsfdwm89dj8b-154">
          <mxGeometry x="40" y="267.5" width="180" height="60" as="geometry" />
        </mxCell>
        <mxCell id="02symyp6Dsfdwm89dj8b-21" value="Block&lt;br&gt;Datetimes" style="shape=cylinder3;whiteSpace=wrap;html=1;boundedLbl=1;backgroundOutline=1;size=15;" vertex="1" parent="02symyp6Dsfdwm89dj8b-154">
          <mxGeometry x="300" y="260" width="60" height="75" as="geometry" />
        </mxCell>
        <mxCell id="02symyp6Dsfdwm89dj8b-52" value="Latest Block" style="shape=cylinder3;whiteSpace=wrap;html=1;boundedLbl=1;backgroundOutline=1;size=15;" vertex="1" parent="02symyp6Dsfdwm89dj8b-154">
          <mxGeometry x="370" y="260" width="60" height="75" as="geometry" />
        </mxCell>
        <mxCell id="02symyp6Dsfdwm89dj8b-13" value="Archive Storage" style="shape=cylinder3;whiteSpace=wrap;html=1;boundedLbl=1;backgroundOutline=1;size=15;" vertex="1" parent="02symyp6Dsfdwm89dj8b-154">
          <mxGeometry x="450" y="260" width="60" height="75" as="geometry" />
        </mxCell>
        <mxCell id="02symyp6Dsfdwm89dj8b-7" value="Recent&lt;br&gt;Storage" style="shape=cylinder3;whiteSpace=wrap;html=1;boundedLbl=1;backgroundOutline=1;size=15;" vertex="1" parent="02symyp6Dsfdwm89dj8b-154">
          <mxGeometry x="530" y="260" width="60" height="75" as="geometry" />
        </mxCell>
        <mxCell id="02symyp6Dsfdwm89dj8b-10" value="&amp;nbsp; &amp;nbsp;- Multicall3 make sense if same block&lt;br&gt;&amp;nbsp; &amp;nbsp;- JsonRPC batch make sense if diff blocks&lt;br&gt;&amp;nbsp; &amp;nbsp;- CAN be slow&lt;br&gt;&amp;nbsp; &amp;nbsp;- WILL fail often&lt;br&gt;&amp;nbsp; &amp;nbsp;- WILL be unavailable -&amp;gt; force unordered import&lt;br&gt;&amp;nbsp; &amp;nbsp;- Non archive MAY answer most recent" style="shape=note;strokeWidth=2;fontSize=9;size=20;whiteSpace=wrap;html=1;fillColor=#fff2cc;strokeColor=#d6b656;fontColor=#666600;align=left;" vertex="1" parent="02symyp6Dsfdwm89dj8b-154">
          <mxGeometry x="410" y="380" width="220" height="80" as="geometry" />
        </mxCell>
        <mxCell id="02symyp6Dsfdwm89dj8b-53" value="&amp;nbsp; &amp;nbsp; - Only source for this&lt;br&gt;&amp;nbsp; &amp;nbsp; - WILL differ for 2 RPC of the same chain" style="shape=note;strokeWidth=2;fontSize=9;size=20;whiteSpace=wrap;html=1;fillColor=#fff2cc;strokeColor=#d6b656;fontColor=#666600;align=left;" vertex="1" parent="02symyp6Dsfdwm89dj8b-154">
          <mxGeometry x="80" y="390" width="180" height="60" as="geometry" />
        </mxCell>
        <mxCell id="02symyp6Dsfdwm89dj8b-9" style="edgeStyle=orthogonalEdgeStyle;rounded=0;orthogonalLoop=1;jettySize=auto;html=1;exitX=0.5;exitY=1;exitDx=0;exitDy=0;exitPerimeter=0;endArrow=none;endFill=0;dashed=1;" edge="1" parent="02symyp6Dsfdwm89dj8b-154" source="02symyp6Dsfdwm89dj8b-8" target="02symyp6Dsfdwm89dj8b-6">
          <mxGeometry relative="1" as="geometry" />
        </mxCell>
        <mxCell id="02symyp6Dsfdwm89dj8b-17" style="edgeStyle=orthogonalEdgeStyle;rounded=0;orthogonalLoop=1;jettySize=auto;html=1;jumpStyle=none;endArrow=none;endFill=0;dashed=1;" edge="1" parent="02symyp6Dsfdwm89dj8b-154" source="02symyp6Dsfdwm89dj8b-16" target="02symyp6Dsfdwm89dj8b-15">
          <mxGeometry relative="1" as="geometry" />
        </mxCell>
        <mxCell id="02symyp6Dsfdwm89dj8b-23" style="edgeStyle=orthogonalEdgeStyle;rounded=0;orthogonalLoop=1;jettySize=auto;html=1;endArrow=none;endFill=0;dashed=1;" edge="1" parent="02symyp6Dsfdwm89dj8b-154" source="02symyp6Dsfdwm89dj8b-22" target="02symyp6Dsfdwm89dj8b-21">
          <mxGeometry relative="1" as="geometry" />
        </mxCell>
        <mxCell id="02symyp6Dsfdwm89dj8b-18" style="edgeStyle=orthogonalEdgeStyle;rounded=0;orthogonalLoop=1;jettySize=auto;html=1;exitX=0.5;exitY=0;exitDx=0;exitDy=0;exitPerimeter=0;endArrow=none;endFill=0;dashed=1;" edge="1" parent="02symyp6Dsfdwm89dj8b-154" source="02symyp6Dsfdwm89dj8b-10" target="02symyp6Dsfdwm89dj8b-7">
          <mxGeometry relative="1" as="geometry" />
        </mxCell>
        <mxCell id="02symyp6Dsfdwm89dj8b-19" style="edgeStyle=orthogonalEdgeStyle;rounded=0;orthogonalLoop=1;jettySize=auto;html=1;exitX=0.5;exitY=0;exitDx=0;exitDy=0;exitPerimeter=0;entryX=0.5;entryY=1;entryDx=0;entryDy=0;entryPerimeter=0;endArrow=none;endFill=0;dashed=1;" edge="1" parent="02symyp6Dsfdwm89dj8b-154" source="02symyp6Dsfdwm89dj8b-10" target="02symyp6Dsfdwm89dj8b-13">
          <mxGeometry relative="1" as="geometry" />
        </mxCell>
        <mxCell id="02symyp6Dsfdwm89dj8b-54" style="edgeStyle=orthogonalEdgeStyle;rounded=0;orthogonalLoop=1;jettySize=auto;html=1;exitX=0;exitY=0;exitDx=180;exitDy=40;exitPerimeter=0;endArrow=none;endFill=0;dashed=1;" edge="1" parent="02symyp6Dsfdwm89dj8b-154" source="02symyp6Dsfdwm89dj8b-53" target="02symyp6Dsfdwm89dj8b-52">
          <mxGeometry relative="1" as="geometry" />
        </mxCell>
        <mxCell id="02symyp6Dsfdwm89dj8b-59" style="edgeStyle=orthogonalEdgeStyle;rounded=0;orthogonalLoop=1;jettySize=auto;html=1;exitX=0.5;exitY=0;exitDx=0;exitDy=0;entryX=0.5;entryY=1;entryDx=0;entryDy=0;endArrow=block;endFill=0;" edge="1" parent="1" source="02symyp6Dsfdwm89dj8b-1" target="02symyp6Dsfdwm89dj8b-55">
          <mxGeometry relative="1" as="geometry" />
        </mxCell>
        <mxCell id="02symyp6Dsfdwm89dj8b-1" value="RPC Worker" style="rounded=1;whiteSpace=wrap;html=1;" vertex="1" parent="1">
          <mxGeometry x="622.5" y="147.5" width="100" height="40" as="geometry" />
        </mxCell>
        <mxCell id="02symyp6Dsfdwm89dj8b-65" style="edgeStyle=orthogonalEdgeStyle;rounded=0;orthogonalLoop=1;jettySize=auto;html=1;exitX=0.5;exitY=0;exitDx=0;exitDy=0;entryX=0.5;entryY=1;entryDx=0;entryDy=0;entryPerimeter=0;" edge="1" parent="1" source="02symyp6Dsfdwm89dj8b-55" target="02symyp6Dsfdwm89dj8b-64">
          <mxGeometry relative="1" as="geometry" />
        </mxCell>
        <mxCell id="02symyp6Dsfdwm89dj8b-67" style="edgeStyle=orthogonalEdgeStyle;rounded=0;orthogonalLoop=1;jettySize=auto;html=1;exitX=0.5;exitY=0;exitDx=0;exitDy=0;" edge="1" parent="1" source="02symyp6Dsfdwm89dj8b-55" target="02symyp6Dsfdwm89dj8b-66">
          <mxGeometry relative="1" as="geometry" />
        </mxCell>
        <mxCell id="02symyp6Dsfdwm89dj8b-69" style="edgeStyle=orthogonalEdgeStyle;rounded=0;orthogonalLoop=1;jettySize=auto;html=1;exitX=0.5;exitY=0;exitDx=0;exitDy=0;" edge="1" parent="1" source="02symyp6Dsfdwm89dj8b-55" target="02symyp6Dsfdwm89dj8b-68">
          <mxGeometry relative="1" as="geometry" />
        </mxCell>
        <mxCell id="02symyp6Dsfdwm89dj8b-71" style="edgeStyle=orthogonalEdgeStyle;rounded=0;orthogonalLoop=1;jettySize=auto;html=1;exitX=1;exitY=0.5;exitDx=0;exitDy=0;" edge="1" parent="1" source="02symyp6Dsfdwm89dj8b-55" target="02symyp6Dsfdwm89dj8b-82">
          <mxGeometry relative="1" as="geometry">
            <mxPoint x="1190" y="35" as="targetPoint" />
          </mxGeometry>
        </mxCell>
        <mxCell id="02symyp6Dsfdwm89dj8b-72" value="Declares itself to&lt;br&gt;Asks for work&lt;br&gt;Tells about work result" style="edgeLabel;html=1;align=center;verticalAlign=middle;resizable=0;points=[];" vertex="1" connectable="0" parent="02symyp6Dsfdwm89dj8b-71">
          <mxGeometry x="-0.0222" y="2" relative="1" as="geometry">
            <mxPoint as="offset" />
          </mxGeometry>
        </mxCell>
        <mxCell id="02symyp6Dsfdwm89dj8b-102" style="edgeStyle=orthogonalEdgeStyle;rounded=0;orthogonalLoop=1;jettySize=auto;html=1;exitX=0.5;exitY=0;exitDx=0;exitDy=0;" edge="1" parent="1" source="02symyp6Dsfdwm89dj8b-55" target="02symyp6Dsfdwm89dj8b-101">
          <mxGeometry relative="1" as="geometry" />
        </mxCell>
        <mxCell id="02symyp6Dsfdwm89dj8b-55" value="Data Source Worker" style="rounded=1;whiteSpace=wrap;html=1;" vertex="1" parent="1">
          <mxGeometry x="810" y="15" width="100" height="40" as="geometry" />
        </mxCell>
        <mxCell id="02symyp6Dsfdwm89dj8b-60" style="edgeStyle=orthogonalEdgeStyle;rounded=0;orthogonalLoop=1;jettySize=auto;html=1;exitX=0.5;exitY=0;exitDx=0;exitDy=0;entryX=0.5;entryY=1;entryDx=0;entryDy=0;endArrow=block;endFill=0;" edge="1" parent="1" source="02symyp6Dsfdwm89dj8b-56" target="02symyp6Dsfdwm89dj8b-55">
          <mxGeometry relative="1" as="geometry" />
        </mxCell>
        <mxCell id="02symyp6Dsfdwm89dj8b-56" value="Beefy Api Worker" style="rounded=1;whiteSpace=wrap;html=1;" vertex="1" parent="1">
          <mxGeometry x="750" y="147.5" width="100" height="40" as="geometry" />
        </mxCell>
        <mxCell id="02symyp6Dsfdwm89dj8b-61" style="edgeStyle=orthogonalEdgeStyle;rounded=0;orthogonalLoop=1;jettySize=auto;html=1;exitX=0.5;exitY=0;exitDx=0;exitDy=0;endArrow=block;endFill=0;" edge="1" parent="1" source="02symyp6Dsfdwm89dj8b-57" target="02symyp6Dsfdwm89dj8b-55">
          <mxGeometry relative="1" as="geometry">
            <mxPoint x="860" y="50" as="targetPoint" />
          </mxGeometry>
        </mxCell>
        <mxCell id="02symyp6Dsfdwm89dj8b-57" value="Github Worker" style="rounded=1;whiteSpace=wrap;html=1;" vertex="1" parent="1">
          <mxGeometry x="880" y="147.5" width="100" height="40" as="geometry" />
        </mxCell>
        <mxCell id="02symyp6Dsfdwm89dj8b-62" style="edgeStyle=orthogonalEdgeStyle;rounded=0;orthogonalLoop=1;jettySize=auto;html=1;exitX=0.5;exitY=0;exitDx=0;exitDy=0;endArrow=block;endFill=0;" edge="1" parent="1" source="02symyp6Dsfdwm89dj8b-58" target="02symyp6Dsfdwm89dj8b-55">
          <mxGeometry relative="1" as="geometry" />
        </mxCell>
        <mxCell id="02symyp6Dsfdwm89dj8b-63" value="is a" style="edgeLabel;html=1;align=center;verticalAlign=middle;resizable=0;points=[];" vertex="1" connectable="0" parent="02symyp6Dsfdwm89dj8b-62">
          <mxGeometry x="0.8088" relative="1" as="geometry">
            <mxPoint as="offset" />
          </mxGeometry>
        </mxCell>
        <mxCell id="02symyp6Dsfdwm89dj8b-58" value="Explorer Worker" style="rounded=1;whiteSpace=wrap;html=1;" vertex="1" parent="1">
          <mxGeometry x="1000" y="147.5" width="100" height="40" as="geometry" />
        </mxCell>
        <mxCell id="02symyp6Dsfdwm89dj8b-64" value="Rate limit policy" style="whiteSpace=wrap;html=1;shape=mxgraph.basic.document" vertex="1" parent="1">
          <mxGeometry x="778.75" y="-110" width="75" height="50" as="geometry" />
        </mxCell>
        <mxCell id="02symyp6Dsfdwm89dj8b-66" value="Query Limitations" style="whiteSpace=wrap;html=1;shape=mxgraph.basic.document" vertex="1" parent="1">
          <mxGeometry x="866.25" y="-110" width="75" height="50" as="geometry" />
        </mxCell>
        <mxCell id="02symyp6Dsfdwm89dj8b-68" value="Cost Config" style="whiteSpace=wrap;html=1;shape=mxgraph.basic.document" vertex="1" parent="1">
          <mxGeometry x="953.75" y="-110" width="75" height="50" as="geometry" />
        </mxCell>
        <mxCell id="02symyp6Dsfdwm89dj8b-79" style="edgeStyle=orthogonalEdgeStyle;rounded=0;orthogonalLoop=1;jettySize=auto;html=1;exitX=0.5;exitY=1;exitDx=0;exitDy=0;" edge="1" parent="1" source="02symyp6Dsfdwm89dj8b-70" target="02symyp6Dsfdwm89dj8b-78">
          <mxGeometry relative="1" as="geometry" />
        </mxCell>
        <mxCell id="02symyp6Dsfdwm89dj8b-83" style="edgeStyle=orthogonalEdgeStyle;rounded=0;orthogonalLoop=1;jettySize=auto;html=1;exitX=0.5;exitY=0;exitDx=0;exitDy=0;entryX=0.5;entryY=1;entryDx=0;entryDy=0;endArrow=block;endFill=0;" edge="1" parent="1" source="02symyp6Dsfdwm89dj8b-70" target="02symyp6Dsfdwm89dj8b-82">
          <mxGeometry relative="1" as="geometry" />
        </mxCell>
        <mxCell id="02symyp6Dsfdwm89dj8b-70" value="Complex&lt;br&gt;Conductor" style="rounded=1;whiteSpace=wrap;html=1;" vertex="1" parent="1">
          <mxGeometry x="1230" y="140" width="100" height="40" as="geometry" />
        </mxCell>
        <mxCell id="02symyp6Dsfdwm89dj8b-73" value="&amp;nbsp; Reorderable&lt;br&gt;&amp;nbsp; Work queue" style="strokeWidth=2;html=1;shape=mxgraph.flowchart.direct_data;whiteSpace=wrap;align=left;" vertex="1" parent="1">
          <mxGeometry x="1180" y="242.5" width="110" height="40" as="geometry" />
        </mxCell>
        <mxCell id="02symyp6Dsfdwm89dj8b-76" value="Import state" style="shape=cylinder3;whiteSpace=wrap;html=1;boundedLbl=1;backgroundOutline=1;size=15;" vertex="1" parent="1">
          <mxGeometry x="2040" y="-45" width="60" height="70" as="geometry" />
        </mxCell>
        <mxCell id="02symyp6Dsfdwm89dj8b-80" style="edgeStyle=orthogonalEdgeStyle;rounded=0;orthogonalLoop=1;jettySize=auto;html=1;endArrow=none;endFill=0;dashed=1;entryX=0;entryY=0.5;entryDx=0;entryDy=0;" edge="1" parent="1" source="02symyp6Dsfdwm89dj8b-77" target="02symyp6Dsfdwm89dj8b-70">
          <mxGeometry relative="1" as="geometry" />
        </mxCell>
        <mxCell id="02symyp6Dsfdwm89dj8b-77" value="&amp;nbsp; - 1 per chain, can be same process or separate&lt;br&gt;&amp;nbsp; - Maintain import&amp;nbsp;&lt;br&gt;&amp;nbsp; - Ex: &lt;br&gt;&amp;nbsp; &amp;nbsp; &amp;nbsp; - If queue grows, use more paid workers&lt;br&gt;&amp;nbsp; &amp;nbsp; &amp;nbsp; - If calm, use free only&lt;br&gt;&amp;nbsp; &amp;nbsp; &amp;nbsp; - If worker become slow, lower it&#39;s usage&lt;br&gt;&amp;nbsp; &amp;nbsp; &amp;nbsp; &amp;nbsp; or send less work" style="shape=note;strokeWidth=2;fontSize=9;size=20;whiteSpace=wrap;html=1;fillColor=#fff2cc;strokeColor=#d6b656;fontColor=#666600;align=left;" vertex="1" parent="1">
          <mxGeometry x="1040" y="320" width="220" height="102.5" as="geometry" />
        </mxCell>
        <mxCell id="02symyp6Dsfdwm89dj8b-78" value="Worker performance" style="shape=cylinder3;whiteSpace=wrap;html=1;boundedLbl=1;backgroundOutline=1;size=15;" vertex="1" parent="1">
          <mxGeometry x="1295" y="242.5" width="85" height="70" as="geometry" />
        </mxCell>
        <mxCell id="02symyp6Dsfdwm89dj8b-74" style="edgeStyle=orthogonalEdgeStyle;rounded=0;orthogonalLoop=1;jettySize=auto;html=1;" edge="1" parent="1" source="02symyp6Dsfdwm89dj8b-70" target="02symyp6Dsfdwm89dj8b-73">
          <mxGeometry relative="1" as="geometry" />
        </mxCell>
        <mxCell id="02symyp6Dsfdwm89dj8b-75" value="Bookkeep using internal" style="edgeLabel;html=1;align=center;verticalAlign=middle;resizable=0;points=[];" vertex="1" connectable="0" parent="02symyp6Dsfdwm89dj8b-74">
          <mxGeometry x="-0.1333" y="3" relative="1" as="geometry">
            <mxPoint x="19" y="-19" as="offset" />
          </mxGeometry>
        </mxCell>
        <mxCell id="02symyp6Dsfdwm89dj8b-82" value="Conductor" style="rounded=1;whiteSpace=wrap;html=1;" vertex="1" parent="1">
          <mxGeometry x="1310" y="15" width="100" height="40" as="geometry" />
        </mxCell>
        <mxCell id="02symyp6Dsfdwm89dj8b-85" style="edgeStyle=orthogonalEdgeStyle;rounded=0;orthogonalLoop=1;jettySize=auto;html=1;exitX=0.5;exitY=1;exitDx=0;exitDy=0;exitPerimeter=0;entryX=0.5;entryY=0;entryDx=0;entryDy=0;endArrow=none;endFill=0;dashed=1;" edge="1" parent="1" source="02symyp6Dsfdwm89dj8b-84" target="02symyp6Dsfdwm89dj8b-82">
          <mxGeometry relative="1" as="geometry" />
        </mxCell>
        <mxCell id="02symyp6Dsfdwm89dj8b-84" value="&amp;nbsp; - Knows about workers and work to be done&lt;br&gt;&amp;nbsp; - Decides to what each worker should do&lt;br&gt;&amp;nbsp; - Make sure no 2 workers are doing the same thing&lt;br&gt;&amp;nbsp; - Schedule retries properly (to avoid blocking)&lt;br&gt;&amp;nbsp; - Decides which type of query is best for the work to be done&lt;br&gt;&amp;nbsp; &amp;nbsp; &amp;nbsp;-&amp;gt; /!\&amp;nbsp;implies it has knowledge about workers internals /!\&lt;br&gt;&amp;nbsp; - Knows how to split large work in smaller pieces&lt;br&gt;&amp;nbsp; &amp;nbsp; &amp;nbsp;-&amp;gt; /!\ implies it has knowledge about the work" style="shape=note;strokeWidth=2;fontSize=9;size=20;whiteSpace=wrap;html=1;fillColor=#fff2cc;strokeColor=#d6b656;fontColor=#666600;align=left;" vertex="1" parent="1">
          <mxGeometry x="1225" y="-150" width="270" height="109.38" as="geometry" />
        </mxCell>
        <mxCell id="02symyp6Dsfdwm89dj8b-87" style="edgeStyle=orthogonalEdgeStyle;rounded=0;orthogonalLoop=1;jettySize=auto;html=1;exitX=0.5;exitY=0;exitDx=0;exitDy=0;endArrow=block;endFill=0;" edge="1" parent="1" source="02symyp6Dsfdwm89dj8b-86" target="02symyp6Dsfdwm89dj8b-82">
          <mxGeometry relative="1" as="geometry" />
        </mxCell>
        <mxCell id="02symyp6Dsfdwm89dj8b-89" style="edgeStyle=orthogonalEdgeStyle;rounded=0;orthogonalLoop=1;jettySize=auto;html=1;exitX=0.5;exitY=1;exitDx=0;exitDy=0;" edge="1" parent="1" source="02symyp6Dsfdwm89dj8b-86" target="02symyp6Dsfdwm89dj8b-88">
          <mxGeometry relative="1" as="geometry" />
        </mxCell>
        <mxCell id="02symyp6Dsfdwm89dj8b-86" value="Simple&lt;br&gt;Conductor" style="rounded=1;whiteSpace=wrap;html=1;" vertex="1" parent="1">
          <mxGeometry x="1420" y="140" width="100" height="40" as="geometry" />
        </mxCell>
        <mxCell id="02symyp6Dsfdwm89dj8b-88" value="Dumb work queue" style="strokeWidth=2;html=1;shape=mxgraph.flowchart.direct_data;whiteSpace=wrap;align=left;" vertex="1" parent="1">
          <mxGeometry x="1415" y="215" width="110" height="40" as="geometry" />
        </mxCell>
        <mxCell id="02symyp6Dsfdwm89dj8b-91" style="edgeStyle=orthogonalEdgeStyle;rounded=0;orthogonalLoop=1;jettySize=auto;html=1;exitX=0;exitY=0.5;exitDx=0;exitDy=0;startArrow=classic;startFill=1;" edge="1" parent="1" source="02symyp6Dsfdwm89dj8b-90" target="02symyp6Dsfdwm89dj8b-82">
          <mxGeometry relative="1" as="geometry" />
        </mxCell>
        <mxCell id="02symyp6Dsfdwm89dj8b-107" value="&amp;lt;- request large work items&lt;br&gt;-&amp;gt; gets partial results as they come in" style="edgeLabel;html=1;align=center;verticalAlign=middle;resizable=0;points=[];" vertex="1" connectable="0" parent="02symyp6Dsfdwm89dj8b-91">
          <mxGeometry x="0.0303" relative="1" as="geometry">
            <mxPoint as="offset" />
          </mxGeometry>
        </mxCell>
        <mxCell id="02symyp6Dsfdwm89dj8b-106" style="edgeStyle=orthogonalEdgeStyle;rounded=0;orthogonalLoop=1;jettySize=auto;html=1;exitX=1;exitY=0.5;exitDx=0;exitDy=0;entryX=0;entryY=0.5;entryDx=0;entryDy=0;entryPerimeter=0;" edge="1" parent="1" source="02symyp6Dsfdwm89dj8b-90" target="02symyp6Dsfdwm89dj8b-76">
          <mxGeometry relative="1" as="geometry">
            <mxPoint x="2000" y="20" as="targetPoint" />
          </mxGeometry>
        </mxCell>
        <mxCell id="02symyp6Dsfdwm89dj8b-110" style="edgeStyle=orthogonalEdgeStyle;rounded=0;orthogonalLoop=1;jettySize=auto;html=1;exitX=1;exitY=0.5;exitDx=0;exitDy=0;entryX=0;entryY=0.5;entryDx=0;entryDy=0;entryPerimeter=0;" edge="1" parent="1" source="02symyp6Dsfdwm89dj8b-90" target="02symyp6Dsfdwm89dj8b-109">
          <mxGeometry relative="1" as="geometry" />
        </mxCell>
        <mxCell id="02symyp6Dsfdwm89dj8b-111" value="Syncs" style="edgeLabel;html=1;align=center;verticalAlign=middle;resizable=0;points=[];" vertex="1" connectable="0" parent="02symyp6Dsfdwm89dj8b-110">
          <mxGeometry x="-0.6917" y="1" relative="1" as="geometry">
            <mxPoint x="13" y="1" as="offset" />
          </mxGeometry>
        </mxCell>
        <mxCell id="02symyp6Dsfdwm89dj8b-90" value="Consumer Script" style="rounded=1;whiteSpace=wrap;html=1;" vertex="1" parent="1">
          <mxGeometry x="1740" y="15" width="100" height="40" as="geometry" />
        </mxCell>
        <mxCell id="02symyp6Dsfdwm89dj8b-97" style="edgeStyle=orthogonalEdgeStyle;rounded=0;orthogonalLoop=1;jettySize=auto;html=1;exitX=0.5;exitY=0;exitDx=0;exitDy=0;endArrow=block;endFill=0;" edge="1" parent="1" source="02symyp6Dsfdwm89dj8b-92" target="02symyp6Dsfdwm89dj8b-90">
          <mxGeometry relative="1" as="geometry" />
        </mxCell>
        <mxCell id="02symyp6Dsfdwm89dj8b-92" value="Product List script" style="rounded=1;whiteSpace=wrap;html=1;" vertex="1" parent="1">
          <mxGeometry x="1680" y="125" width="100" height="40" as="geometry" />
        </mxCell>
        <mxCell id="02symyp6Dsfdwm89dj8b-99" style="edgeStyle=orthogonalEdgeStyle;rounded=0;orthogonalLoop=1;jettySize=auto;html=1;exitX=0.5;exitY=0;exitDx=0;exitDy=0;endArrow=block;endFill=0;" edge="1" parent="1" source="02symyp6Dsfdwm89dj8b-95" target="02symyp6Dsfdwm89dj8b-90">
          <mxGeometry relative="1" as="geometry" />
        </mxCell>
        <mxCell id="02symyp6Dsfdwm89dj8b-95" value="Product Events script" style="rounded=1;whiteSpace=wrap;html=1;" vertex="1" parent="1">
          <mxGeometry x="1740" y="180" width="100" height="40" as="geometry" />
        </mxCell>
        <mxCell id="02symyp6Dsfdwm89dj8b-98" style="edgeStyle=orthogonalEdgeStyle;rounded=0;orthogonalLoop=1;jettySize=auto;html=1;exitX=0.5;exitY=0;exitDx=0;exitDy=0;endArrow=block;endFill=0;" edge="1" parent="1" source="02symyp6Dsfdwm89dj8b-96" target="02symyp6Dsfdwm89dj8b-90">
          <mxGeometry relative="1" as="geometry" />
        </mxCell>
        <mxCell id="02symyp6Dsfdwm89dj8b-96" value="Event Data script" style="rounded=1;whiteSpace=wrap;html=1;" vertex="1" parent="1">
          <mxGeometry x="1820" y="125" width="100" height="40" as="geometry" />
        </mxCell>
        <mxCell id="02symyp6Dsfdwm89dj8b-100" value="&amp;nbsp; - Knows about workers and work to be done&lt;br&gt;&amp;nbsp; - Decides to what each worker should do" style="shape=note;strokeWidth=2;fontSize=9;size=20;whiteSpace=wrap;html=1;fillColor=#fff2cc;strokeColor=#d6b656;fontColor=#666600;align=left;" vertex="1" parent="1">
          <mxGeometry x="1670" y="-96.87" width="220" height="56.25" as="geometry" />
        </mxCell>
        <mxCell id="02symyp6Dsfdwm89dj8b-101" value="Retry Policy" style="whiteSpace=wrap;html=1;shape=mxgraph.basic.document" vertex="1" parent="1">
          <mxGeometry x="691.25" y="-110" width="75" height="50" as="geometry" />
        </mxCell>
        <mxCell id="02symyp6Dsfdwm89dj8b-104" style="edgeStyle=orthogonalEdgeStyle;rounded=0;orthogonalLoop=1;jettySize=auto;html=1;exitX=0.5;exitY=0;exitDx=0;exitDy=0;exitPerimeter=0;entryX=1;entryY=0.5;entryDx=0;entryDy=0;dashed=1;endArrow=none;endFill=0;" edge="1" parent="1" source="02symyp6Dsfdwm89dj8b-103" target="02symyp6Dsfdwm89dj8b-86">
          <mxGeometry relative="1" as="geometry" />
        </mxCell>
        <mxCell id="02symyp6Dsfdwm89dj8b-103" value="&amp;nbsp; - used for simple sources&lt;br&gt;&amp;nbsp; - or when only 1 rpc is available for a chain" style="shape=note;strokeWidth=2;fontSize=9;size=20;whiteSpace=wrap;html=1;fillColor=#fff2cc;strokeColor=#d6b656;fontColor=#666600;align=left;" vertex="1" parent="1">
          <mxGeometry x="1450" y="290" width="200" height="50" as="geometry" />
        </mxCell>
        <mxCell id="02symyp6Dsfdwm89dj8b-109" value="Data" style="shape=cylinder3;whiteSpace=wrap;html=1;boundedLbl=1;backgroundOutline=1;size=15;" vertex="1" parent="1">
          <mxGeometry x="2040" y="40" width="60" height="70" as="geometry" />
        </mxCell>
        <mxCell id="02symyp6Dsfdwm89dj8b-140" value="Timeline Import state data structure" style="swimlane;whiteSpace=wrap;html=1;fillColor=none;" vertex="1" parent="1">
          <mxGeometry x="1490" y="430" width="930" height="550" as="geometry" />
        </mxCell>
        <mxCell id="02symyp6Dsfdwm89dj8b-149" style="edgeStyle=orthogonalEdgeStyle;rounded=0;orthogonalLoop=1;jettySize=auto;html=1;exitX=0.5;exitY=1;exitDx=0;exitDy=0;entryX=0.5;entryY=0;entryDx=0;entryDy=0;" edge="1" parent="02symyp6Dsfdwm89dj8b-140" target="02symyp6Dsfdwm89dj8b-142">
          <mxGeometry relative="1" as="geometry">
            <mxPoint x="290" y="160" as="sourcePoint" />
          </mxGeometry>
        </mxCell>
        <mxCell id="02symyp6Dsfdwm89dj8b-150" style="edgeStyle=orthogonalEdgeStyle;rounded=0;orthogonalLoop=1;jettySize=auto;html=1;exitX=0.5;exitY=1;exitDx=0;exitDy=0;entryX=0.5;entryY=0;entryDx=0;entryDy=0;" edge="1" parent="02symyp6Dsfdwm89dj8b-140" target="02symyp6Dsfdwm89dj8b-146">
          <mxGeometry relative="1" as="geometry">
            <mxPoint x="290" y="160" as="sourcePoint" />
          </mxGeometry>
        </mxCell>
        <mxCell id="02symyp6Dsfdwm89dj8b-144" style="edgeStyle=orthogonalEdgeStyle;rounded=0;orthogonalLoop=1;jettySize=auto;html=1;exitX=0;exitY=0.5;exitDx=0;exitDy=0;entryX=1;entryY=0.5;entryDx=0;entryDy=0;" edge="1" parent="02symyp6Dsfdwm89dj8b-140" target="02symyp6Dsfdwm89dj8b-141">
          <mxGeometry relative="1" as="geometry">
            <mxPoint x="470" y="150" as="sourcePoint" />
          </mxGeometry>
        </mxCell>
        <mxCell id="02symyp6Dsfdwm89dj8b-145" value="Updates" style="edgeLabel;html=1;align=center;verticalAlign=middle;resizable=0;points=[];" vertex="1" connectable="0" parent="02symyp6Dsfdwm89dj8b-144">
          <mxGeometry x="-0.0229" y="-1" relative="1" as="geometry">
            <mxPoint y="1" as="offset" />
          </mxGeometry>
        </mxCell>
        <mxCell id="02symyp6Dsfdwm89dj8b-158" value="&amp;nbsp;- range based&lt;br&gt;&amp;nbsp;- either block range or date range&lt;br&gt;&amp;nbsp;- makes sure we retry failed ranges" style="shape=note;strokeWidth=2;fontSize=9;size=20;whiteSpace=wrap;html=1;fillColor=#fff2cc;strokeColor=#d6b656;fontColor=#666600;align=left;" vertex="1" parent="02symyp6Dsfdwm89dj8b-140">
          <mxGeometry x="30" y="150" width="160" height="70" as="geometry" />
        </mxCell>
        <mxCell id="02symyp6Dsfdwm89dj8b-161" style="edgeStyle=orthogonalEdgeStyle;rounded=0;orthogonalLoop=1;jettySize=auto;html=1;exitX=1;exitY=0.25;exitDx=0;exitDy=0;entryX=0;entryY=0.25;entryDx=0;entryDy=0;" edge="1" parent="02symyp6Dsfdwm89dj8b-140" source="02symyp6Dsfdwm89dj8b-159" target="02symyp6Dsfdwm89dj8b-190">
          <mxGeometry relative="1" as="geometry">
            <mxPoint x="340" y="320" as="targetPoint" />
          </mxGeometry>
        </mxCell>
        <mxCell id="02symyp6Dsfdwm89dj8b-162" value="key n" style="edgeLabel;html=1;align=center;verticalAlign=middle;resizable=0;points=[];" vertex="1" connectable="0" parent="02symyp6Dsfdwm89dj8b-161">
          <mxGeometry x="0.2475" relative="1" as="geometry">
            <mxPoint as="offset" />
          </mxGeometry>
        </mxCell>
        <mxCell id="02symyp6Dsfdwm89dj8b-159" value="key 1&lt;br&gt;key 2&lt;br&gt;...&lt;br&gt;key n" style="shape=internalStorage;whiteSpace=wrap;html=1;backgroundOutline=1;fillColor=none;" vertex="1" parent="02symyp6Dsfdwm89dj8b-140">
          <mxGeometry x="50" y="290" width="80" height="150" as="geometry" />
        </mxCell>
        <mxCell id="02symyp6Dsfdwm89dj8b-169" value="Writes" style="rounded=1;whiteSpace=wrap;html=1;" vertex="1" parent="02symyp6Dsfdwm89dj8b-140">
          <mxGeometry x="460" y="181" width="60" height="40" as="geometry" />
        </mxCell>
        <mxCell id="02symyp6Dsfdwm89dj8b-163" value="Latest block/datetime&lt;br&gt;Changed" style="rounded=1;whiteSpace=wrap;html=1;" vertex="1" parent="02symyp6Dsfdwm89dj8b-140">
          <mxGeometry x="630" y="120" width="90" height="50" as="geometry" />
        </mxCell>
        <mxCell id="02symyp6Dsfdwm89dj8b-165" value="Init key (start)" style="rounded=1;whiteSpace=wrap;html=1;" vertex="1" parent="02symyp6Dsfdwm89dj8b-140">
          <mxGeometry x="630" y="236.75" width="90" height="42.5" as="geometry" />
        </mxCell>
        <mxCell id="02symyp6Dsfdwm89dj8b-167" value="Success(key, range)&lt;br&gt;Error(key, range)" style="rounded=1;whiteSpace=wrap;html=1;" vertex="1" parent="02symyp6Dsfdwm89dj8b-140">
          <mxGeometry x="630" y="287" width="130" height="40" as="geometry" />
        </mxCell>
        <mxCell id="02symyp6Dsfdwm89dj8b-164" style="edgeStyle=orthogonalEdgeStyle;rounded=0;orthogonalLoop=1;jettySize=auto;html=1;exitX=0;exitY=0.5;exitDx=0;exitDy=0;entryX=1;entryY=0.5;entryDx=0;entryDy=0;" edge="1" parent="02symyp6Dsfdwm89dj8b-140" source="02symyp6Dsfdwm89dj8b-163" target="02symyp6Dsfdwm89dj8b-169">
          <mxGeometry relative="1" as="geometry">
            <mxPoint x="540" y="200" as="targetPoint" />
          </mxGeometry>
        </mxCell>
        <mxCell id="02symyp6Dsfdwm89dj8b-166" style="edgeStyle=orthogonalEdgeStyle;rounded=0;orthogonalLoop=1;jettySize=auto;html=1;exitX=0;exitY=0.5;exitDx=0;exitDy=0;entryX=1;entryY=0.5;entryDx=0;entryDy=0;" edge="1" parent="02symyp6Dsfdwm89dj8b-140" source="02symyp6Dsfdwm89dj8b-165" target="02symyp6Dsfdwm89dj8b-169">
          <mxGeometry relative="1" as="geometry">
            <mxPoint x="540" y="280" as="targetPoint" />
          </mxGeometry>
        </mxCell>
        <mxCell id="02symyp6Dsfdwm89dj8b-168" style="edgeStyle=orthogonalEdgeStyle;rounded=0;orthogonalLoop=1;jettySize=auto;html=1;exitX=0;exitY=0.5;exitDx=0;exitDy=0;entryX=1;entryY=0.5;entryDx=0;entryDy=0;" edge="1" parent="02symyp6Dsfdwm89dj8b-140" source="02symyp6Dsfdwm89dj8b-167" target="02symyp6Dsfdwm89dj8b-169">
          <mxGeometry relative="1" as="geometry" />
        </mxCell>
        <mxCell id="02symyp6Dsfdwm89dj8b-170" value="" style="endArrow=none;html=1;rounded=0;" edge="1" parent="02symyp6Dsfdwm89dj8b-140">
          <mxGeometry width="50" height="50" relative="1" as="geometry">
            <mxPoint x="430" y="520" as="sourcePoint" />
            <mxPoint x="430" y="60" as="targetPoint" />
          </mxGeometry>
        </mxCell>
        <mxCell id="02symyp6Dsfdwm89dj8b-173" style="edgeStyle=orthogonalEdgeStyle;rounded=0;orthogonalLoop=1;jettySize=auto;html=1;exitX=1;exitY=0.5;exitDx=0;exitDy=0;entryX=0;entryY=0.5;entryDx=0;entryDy=0;" edge="1" parent="02symyp6Dsfdwm89dj8b-140" source="02symyp6Dsfdwm89dj8b-171" target="02symyp6Dsfdwm89dj8b-172">
          <mxGeometry relative="1" as="geometry" />
        </mxCell>
        <mxCell id="02symyp6Dsfdwm89dj8b-175" style="edgeStyle=orthogonalEdgeStyle;rounded=0;orthogonalLoop=1;jettySize=auto;html=1;exitX=1;exitY=0.5;exitDx=0;exitDy=0;entryX=0;entryY=0.5;entryDx=0;entryDy=0;" edge="1" parent="02symyp6Dsfdwm89dj8b-140" source="02symyp6Dsfdwm89dj8b-171" target="02symyp6Dsfdwm89dj8b-174">
          <mxGeometry relative="1" as="geometry" />
        </mxCell>
        <mxCell id="02symyp6Dsfdwm89dj8b-186" style="edgeStyle=orthogonalEdgeStyle;rounded=0;orthogonalLoop=1;jettySize=auto;html=1;exitX=1;exitY=0.5;exitDx=0;exitDy=0;entryX=0;entryY=0.5;entryDx=0;entryDy=0;" edge="1" parent="02symyp6Dsfdwm89dj8b-140" source="02symyp6Dsfdwm89dj8b-171" target="02symyp6Dsfdwm89dj8b-185">
          <mxGeometry relative="1" as="geometry" />
        </mxCell>
        <mxCell id="02symyp6Dsfdwm89dj8b-171" value="Reads" style="rounded=1;whiteSpace=wrap;html=1;" vertex="1" parent="02symyp6Dsfdwm89dj8b-140">
          <mxGeometry x="460" y="395" width="60" height="40" as="geometry" />
        </mxCell>
        <mxCell id="02symyp6Dsfdwm89dj8b-172" value="Get Range Query" style="rounded=1;whiteSpace=wrap;html=1;" vertex="1" parent="02symyp6Dsfdwm89dj8b-140">
          <mxGeometry x="630" y="370" width="90" height="40" as="geometry" />
        </mxCell>
        <mxCell id="02symyp6Dsfdwm89dj8b-174" value="Get Point Query" style="rounded=1;whiteSpace=wrap;html=1;" vertex="1" parent="02symyp6Dsfdwm89dj8b-140">
          <mxGeometry x="630" y="420" width="90" height="40" as="geometry" />
        </mxCell>
        <mxCell id="02symyp6Dsfdwm89dj8b-193" style="edgeStyle=orthogonalEdgeStyle;rounded=0;orthogonalLoop=1;jettySize=auto;html=1;exitX=1;exitY=0.5;exitDx=0;exitDy=0;entryX=0;entryY=0.5;entryDx=0;entryDy=0;dashed=1;" edge="1" parent="02symyp6Dsfdwm89dj8b-140" source="02symyp6Dsfdwm89dj8b-180" target="02symyp6Dsfdwm89dj8b-189">
          <mxGeometry relative="1" as="geometry" />
        </mxCell>
        <mxCell id="02symyp6Dsfdwm89dj8b-180" value="Latest" style="rounded=1;whiteSpace=wrap;html=1;" vertex="1" parent="02symyp6Dsfdwm89dj8b-140">
          <mxGeometry x="65" y="470" width="50" height="22.5" as="geometry" />
        </mxCell>
        <mxCell id="02symyp6Dsfdwm89dj8b-182" value="&amp;nbsp;- Too high level for this data structure&lt;br&gt;&amp;nbsp;- have lower level access" style="shape=note;strokeWidth=2;fontSize=9;size=20;whiteSpace=wrap;html=1;fillColor=#f8cecc;strokeColor=#b85450;align=left;" vertex="1" parent="02symyp6Dsfdwm89dj8b-140">
          <mxGeometry x="740" y="492.5" width="170" height="47.5" as="geometry" />
        </mxCell>
        <mxCell id="02symyp6Dsfdwm89dj8b-183" style="edgeStyle=orthogonalEdgeStyle;rounded=0;orthogonalLoop=1;jettySize=auto;html=1;exitX=0.5;exitY=0;exitDx=0;exitDy=0;exitPerimeter=0;dashed=1;endArrow=none;endFill=0;entryX=1;entryY=0.5;entryDx=0;entryDy=0;" edge="1" parent="02symyp6Dsfdwm89dj8b-140" source="02symyp6Dsfdwm89dj8b-182" target="02symyp6Dsfdwm89dj8b-172">
          <mxGeometry relative="1" as="geometry" />
        </mxCell>
        <mxCell id="02symyp6Dsfdwm89dj8b-184" style="edgeStyle=orthogonalEdgeStyle;rounded=0;orthogonalLoop=1;jettySize=auto;html=1;exitX=0.5;exitY=0;exitDx=0;exitDy=0;exitPerimeter=0;dashed=1;endArrow=none;endFill=0;entryX=1;entryY=0.5;entryDx=0;entryDy=0;" edge="1" parent="02symyp6Dsfdwm89dj8b-140" source="02symyp6Dsfdwm89dj8b-182" target="02symyp6Dsfdwm89dj8b-174">
          <mxGeometry relative="1" as="geometry">
            <mxPoint x="675" y="503" as="sourcePoint" />
            <mxPoint x="685" y="420" as="targetPoint" />
          </mxGeometry>
        </mxCell>
        <mxCell id="02symyp6Dsfdwm89dj8b-185" value="Serialize" style="rounded=1;whiteSpace=wrap;html=1;" vertex="1" parent="02symyp6Dsfdwm89dj8b-140">
          <mxGeometry x="630" y="470" width="90" height="40" as="geometry" />
        </mxCell>
        <mxCell id="02symyp6Dsfdwm89dj8b-188" style="edgeStyle=orthogonalEdgeStyle;rounded=0;orthogonalLoop=1;jettySize=auto;html=1;exitX=0;exitY=0.5;exitDx=0;exitDy=0;entryX=1;entryY=0.5;entryDx=0;entryDy=0;" edge="1" parent="02symyp6Dsfdwm89dj8b-140" source="02symyp6Dsfdwm89dj8b-187" target="02symyp6Dsfdwm89dj8b-169">
          <mxGeometry relative="1" as="geometry" />
        </mxCell>
        <mxCell id="02symyp6Dsfdwm89dj8b-187" value="Hydrate" style="rounded=1;whiteSpace=wrap;html=1;" vertex="1" parent="02symyp6Dsfdwm89dj8b-140">
          <mxGeometry x="630" y="70" width="90" height="40" as="geometry" />
        </mxCell>
        <mxCell id="02symyp6Dsfdwm89dj8b-190" value="Stored data" style="swimlane;whiteSpace=wrap;html=1;" vertex="1" parent="02symyp6Dsfdwm89dj8b-140">
          <mxGeometry x="230" y="200" width="130" height="160" as="geometry" />
        </mxCell>
        <mxCell id="02symyp6Dsfdwm89dj8b-176" value="success [ ]" style="shape=process;whiteSpace=wrap;html=1;backgroundOutline=1;" vertex="1" parent="02symyp6Dsfdwm89dj8b-190">
          <mxGeometry x="10" y="37" width="110" height="30" as="geometry" />
        </mxCell>
        <mxCell id="02symyp6Dsfdwm89dj8b-177" value="error [ ] (+ log? + retry count?)" style="shape=process;whiteSpace=wrap;html=1;backgroundOutline=1;" vertex="1" parent="02symyp6Dsfdwm89dj8b-190">
          <mxGeometry x="10" y="77" width="110" height="30" as="geometry" />
        </mxCell>
        <mxCell id="02symyp6Dsfdwm89dj8b-178" value="start" style="rounded=1;whiteSpace=wrap;html=1;" vertex="1" parent="02symyp6Dsfdwm89dj8b-190">
          <mxGeometry x="10" y="120" width="50" height="22.5" as="geometry" />
        </mxCell>
        <mxCell id="02symyp6Dsfdwm89dj8b-179" value="end" style="rounded=1;whiteSpace=wrap;html=1;dashed=1;" vertex="1" parent="02symyp6Dsfdwm89dj8b-190">
          <mxGeometry x="70" y="120" width="50" height="22.5" as="geometry" />
        </mxCell>
        <mxCell id="02symyp6Dsfdwm89dj8b-191" value="Derived data" style="swimlane;whiteSpace=wrap;html=1;dashed=1;" vertex="1" parent="02symyp6Dsfdwm89dj8b-140">
          <mxGeometry x="230" y="395" width="130" height="90" as="geometry" />
        </mxCell>
        <mxCell id="02symyp6Dsfdwm89dj8b-189" value="full range" style="shape=process;whiteSpace=wrap;html=1;backgroundOutline=1;" vertex="1" parent="02symyp6Dsfdwm89dj8b-191">
          <mxGeometry x="10" y="40" width="110" height="30" as="geometry" />
        </mxCell>
        <mxCell id="02symyp6Dsfdwm89dj8b-192" style="edgeStyle=orthogonalEdgeStyle;rounded=0;orthogonalLoop=1;jettySize=auto;html=1;exitX=0.5;exitY=1;exitDx=0;exitDy=0;dashed=1;" edge="1" parent="02symyp6Dsfdwm89dj8b-140" source="02symyp6Dsfdwm89dj8b-178" target="02symyp6Dsfdwm89dj8b-189">
          <mxGeometry relative="1" as="geometry" />
        </mxCell>
        <mxCell id="02symyp6Dsfdwm89dj8b-194" style="edgeStyle=orthogonalEdgeStyle;rounded=0;orthogonalLoop=1;jettySize=auto;html=1;exitX=0.5;exitY=1;exitDx=0;exitDy=0;dashed=1;" edge="1" parent="02symyp6Dsfdwm89dj8b-140" source="02symyp6Dsfdwm89dj8b-179" target="02symyp6Dsfdwm89dj8b-189">
          <mxGeometry relative="1" as="geometry" />
        </mxCell>
        <mxCell id="02symyp6Dsfdwm89dj8b-197" style="edgeStyle=orthogonalEdgeStyle;rounded=0;orthogonalLoop=1;jettySize=auto;html=1;exitX=0;exitY=0.5;exitDx=0;exitDy=0;entryX=1;entryY=0.5;entryDx=0;entryDy=0;" edge="1" parent="02symyp6Dsfdwm89dj8b-140" source="02symyp6Dsfdwm89dj8b-196" target="02symyp6Dsfdwm89dj8b-169">
          <mxGeometry relative="1" as="geometry" />
        </mxCell>
        <mxCell id="02symyp6Dsfdwm89dj8b-196" value="Set key end" style="rounded=1;whiteSpace=wrap;html=1;" vertex="1" parent="02symyp6Dsfdwm89dj8b-140">
          <mxGeometry x="630" y="180" width="90" height="42.5" as="geometry" />
        </mxCell>
        <mxCell id="02symyp6Dsfdwm89dj8b-155" value="Explorer data sources" style="swimlane;whiteSpace=wrap;html=1;" vertex="1" parent="1">
          <mxGeometry x="-370" y="380" width="810" height="240" as="geometry" />
        </mxCell>
        <mxCell id="02symyp6Dsfdwm89dj8b-28" value="&amp;nbsp; &amp;nbsp; - WILL fail to index some data&lt;br&gt;&amp;nbsp; &amp;nbsp; - COULD be more efficient" style="shape=note;strokeWidth=2;fontSize=9;size=20;whiteSpace=wrap;html=1;fillColor=#fff2cc;strokeColor=#d6b656;fontColor=#666600;align=left;" vertex="1" parent="02symyp6Dsfdwm89dj8b-155">
          <mxGeometry x="12.5" y="117.5" width="210" height="60" as="geometry" />
        </mxCell>
        <mxCell id="02symyp6Dsfdwm89dj8b-25" value="Block&lt;br&gt;Datetimes" style="shape=cylinder3;whiteSpace=wrap;html=1;boundedLbl=1;backgroundOutline=1;size=15;" vertex="1" parent="02symyp6Dsfdwm89dj8b-155">
          <mxGeometry x="297.5" y="52.5" width="60" height="75" as="geometry" />
        </mxCell>
        <mxCell id="02symyp6Dsfdwm89dj8b-30" value="Archive&lt;br&gt;Events" style="shape=cylinder3;whiteSpace=wrap;html=1;boundedLbl=1;backgroundOutline=1;size=15;" vertex="1" parent="02symyp6Dsfdwm89dj8b-155">
          <mxGeometry x="397.5" y="52.5" width="60" height="70" as="geometry" />
        </mxCell>
        <mxCell id="02symyp6Dsfdwm89dj8b-33" value="Contract Creation Block" style="shape=cylinder3;whiteSpace=wrap;html=1;boundedLbl=1;backgroundOutline=1;size=15;" vertex="1" parent="02symyp6Dsfdwm89dj8b-155">
          <mxGeometry x="397.5" y="132.5" width="60" height="80" as="geometry" />
        </mxCell>
        <mxCell id="02symyp6Dsfdwm89dj8b-34" value="&amp;nbsp; &amp;nbsp; - Only source providing this" style="shape=note;strokeWidth=2;fontSize=9;size=20;whiteSpace=wrap;html=1;fillColor=#fff2cc;strokeColor=#d6b656;fontColor=#666600;align=left;" vertex="1" parent="02symyp6Dsfdwm89dj8b-155">
          <mxGeometry x="550" y="150" width="165" height="60" as="geometry" />
        </mxCell>
        <mxCell id="02symyp6Dsfdwm89dj8b-35" style="edgeStyle=orthogonalEdgeStyle;rounded=0;orthogonalLoop=1;jettySize=auto;html=1;endArrow=none;endFill=0;dashed=1;" edge="1" parent="02symyp6Dsfdwm89dj8b-155" source="02symyp6Dsfdwm89dj8b-34" target="02symyp6Dsfdwm89dj8b-33">
          <mxGeometry relative="1" as="geometry" />
        </mxCell>
        <mxCell id="02symyp6Dsfdwm89dj8b-31" value="&amp;nbsp; &amp;nbsp; - WILL fail to index some data&lt;br&gt;&amp;nbsp; &amp;nbsp; - Query larger ranges with low event count" style="shape=note;strokeWidth=2;fontSize=9;size=20;whiteSpace=wrap;html=1;fillColor=#fff2cc;strokeColor=#d6b656;fontColor=#666600;align=left;" vertex="1" parent="02symyp6Dsfdwm89dj8b-155">
          <mxGeometry x="577.5" y="57.5" width="210" height="60" as="geometry" />
        </mxCell>
        <mxCell id="02symyp6Dsfdwm89dj8b-32" style="edgeStyle=orthogonalEdgeStyle;rounded=0;orthogonalLoop=1;jettySize=auto;html=1;endArrow=none;endFill=0;dashed=1;" edge="1" parent="02symyp6Dsfdwm89dj8b-155" source="02symyp6Dsfdwm89dj8b-31" target="02symyp6Dsfdwm89dj8b-30">
          <mxGeometry relative="1" as="geometry" />
        </mxCell>
        <mxCell id="02symyp6Dsfdwm89dj8b-156" value="Beefy API" style="swimlane;whiteSpace=wrap;html=1;" vertex="1" parent="1">
          <mxGeometry x="-163.75" y="657.5" width="390" height="340" as="geometry" />
        </mxCell>
        <mxCell id="02symyp6Dsfdwm89dj8b-37" value="Product List&lt;br&gt;Snapshot" style="shape=cylinder3;whiteSpace=wrap;html=1;boundedLbl=1;backgroundOutline=1;size=15;" vertex="1" parent="02symyp6Dsfdwm89dj8b-156">
          <mxGeometry x="90" y="40" width="60" height="75" as="geometry" />
        </mxCell>
        <mxCell id="02symyp6Dsfdwm89dj8b-40" value="&amp;nbsp; &amp;nbsp; - WILL be unavailable" style="shape=note;strokeWidth=2;fontSize=9;size=20;whiteSpace=wrap;html=1;fillColor=#fff2cc;strokeColor=#d6b656;fontColor=#666600;align=left;" vertex="1" parent="02symyp6Dsfdwm89dj8b-156">
          <mxGeometry x="20" y="180" width="165" height="60" as="geometry" />
        </mxCell>
        <mxCell id="02symyp6Dsfdwm89dj8b-45" value="Current TVL / prod" style="shape=cylinder3;whiteSpace=wrap;html=1;boundedLbl=1;backgroundOutline=1;size=15;" vertex="1" parent="02symyp6Dsfdwm89dj8b-156">
          <mxGeometry x="190" y="40" width="60" height="75" as="geometry" />
        </mxCell>
        <mxCell id="02symyp6Dsfdwm89dj8b-48" value="Current breakdown / prod" style="shape=cylinder3;whiteSpace=wrap;html=1;boundedLbl=1;backgroundOutline=1;size=15;" vertex="1" parent="02symyp6Dsfdwm89dj8b-156">
          <mxGeometry x="270" y="40" width="60" height="75" as="geometry" />
        </mxCell>
        <mxCell id="02symyp6Dsfdwm89dj8b-46" value="TVL / prod History" style="shape=cylinder3;whiteSpace=wrap;html=1;boundedLbl=1;backgroundOutline=1;size=15;" vertex="1" parent="02symyp6Dsfdwm89dj8b-156">
          <mxGeometry x="190" y="130" width="60" height="75" as="geometry" />
        </mxCell>
        <mxCell id="02symyp6Dsfdwm89dj8b-49" value="Breakdown / prod History" style="shape=cylinder3;whiteSpace=wrap;html=1;boundedLbl=1;backgroundOutline=1;size=15;" vertex="1" parent="02symyp6Dsfdwm89dj8b-156">
          <mxGeometry x="270" y="130" width="60" height="75" as="geometry" />
        </mxCell>
        <mxCell id="02symyp6Dsfdwm89dj8b-47" value="&amp;nbsp; &amp;nbsp; - Partial History" style="shape=note;strokeWidth=2;fontSize=9;size=20;whiteSpace=wrap;html=1;fillColor=#fff2cc;strokeColor=#d6b656;fontColor=#666600;align=left;" vertex="1" parent="02symyp6Dsfdwm89dj8b-156">
          <mxGeometry x="200" y="250" width="130" height="60" as="geometry" />
        </mxCell>
        <mxCell id="02symyp6Dsfdwm89dj8b-51" style="edgeStyle=orthogonalEdgeStyle;rounded=0;orthogonalLoop=1;jettySize=auto;html=1;endArrow=none;endFill=0;dashed=1;" edge="1" parent="02symyp6Dsfdwm89dj8b-156" source="02symyp6Dsfdwm89dj8b-47" target="02symyp6Dsfdwm89dj8b-49">
          <mxGeometry relative="1" as="geometry" />
        </mxCell>
        <mxCell id="02symyp6Dsfdwm89dj8b-50" style="edgeStyle=orthogonalEdgeStyle;rounded=0;orthogonalLoop=1;jettySize=auto;html=1;endArrow=none;endFill=0;dashed=1;" edge="1" parent="02symyp6Dsfdwm89dj8b-156" source="02symyp6Dsfdwm89dj8b-47" target="02symyp6Dsfdwm89dj8b-46">
          <mxGeometry relative="1" as="geometry" />
        </mxCell>
        <mxCell id="02symyp6Dsfdwm89dj8b-157" value="Github" style="swimlane;whiteSpace=wrap;html=1;" vertex="1" parent="1">
          <mxGeometry x="-110" y="1060" width="290" height="160" as="geometry" />
        </mxCell>
        <mxCell id="02symyp6Dsfdwm89dj8b-42" value="Product History" style="shape=cylinder3;whiteSpace=wrap;html=1;boundedLbl=1;backgroundOutline=1;size=15;" vertex="1" parent="02symyp6Dsfdwm89dj8b-157">
          <mxGeometry x="20" y="40" width="60" height="75" as="geometry" />
        </mxCell>
        <mxCell id="02symyp6Dsfdwm89dj8b-43" value="&amp;nbsp; &amp;nbsp; - Unlikely to fail&lt;br&gt;&amp;nbsp; &amp;nbsp; - Provide historical data" style="shape=note;strokeWidth=2;fontSize=9;size=20;whiteSpace=wrap;html=1;fillColor=#fff2cc;strokeColor=#d6b656;fontColor=#666600;align=left;" vertex="1" parent="02symyp6Dsfdwm89dj8b-157">
          <mxGeometry x="110" y="47.5" width="165" height="60" as="geometry" />
        </mxCell>
        <mxCell id="02symyp6Dsfdwm89dj8b-198" value="Snapshot Import state data structure" style="swimlane;whiteSpace=wrap;html=1;fillColor=none;" vertex="1" parent="1">
          <mxGeometry x="1490" y="1030" width="930" height="550" as="geometry" />
        </mxCell>
        <mxCell id="02symyp6Dsfdwm89dj8b-199" style="edgeStyle=orthogonalEdgeStyle;rounded=0;orthogonalLoop=1;jettySize=auto;html=1;exitX=0.5;exitY=1;exitDx=0;exitDy=0;entryX=0.5;entryY=0;entryDx=0;entryDy=0;" edge="1" parent="02symyp6Dsfdwm89dj8b-198">
          <mxGeometry relative="1" as="geometry">
            <mxPoint x="290" y="160" as="sourcePoint" />
          </mxGeometry>
        </mxCell>
        <mxCell id="02symyp6Dsfdwm89dj8b-200" style="edgeStyle=orthogonalEdgeStyle;rounded=0;orthogonalLoop=1;jettySize=auto;html=1;exitX=0.5;exitY=1;exitDx=0;exitDy=0;entryX=0.5;entryY=0;entryDx=0;entryDy=0;" edge="1" parent="02symyp6Dsfdwm89dj8b-198">
          <mxGeometry relative="1" as="geometry">
            <mxPoint x="290" y="160" as="sourcePoint" />
          </mxGeometry>
        </mxCell>
        <mxCell id="02symyp6Dsfdwm89dj8b-201" style="edgeStyle=orthogonalEdgeStyle;rounded=0;orthogonalLoop=1;jettySize=auto;html=1;exitX=0;exitY=0.5;exitDx=0;exitDy=0;entryX=1;entryY=0.5;entryDx=0;entryDy=0;" edge="1" parent="02symyp6Dsfdwm89dj8b-198">
          <mxGeometry relative="1" as="geometry">
            <mxPoint x="470" y="150" as="sourcePoint" />
          </mxGeometry>
        </mxCell>
        <mxCell id="02symyp6Dsfdwm89dj8b-202" value="Updates" style="edgeLabel;html=1;align=center;verticalAlign=middle;resizable=0;points=[];" vertex="1" connectable="0" parent="02symyp6Dsfdwm89dj8b-201">
          <mxGeometry x="-0.0229" y="-1" relative="1" as="geometry">
            <mxPoint y="1" as="offset" />
          </mxGeometry>
        </mxCell>
        <mxCell id="02symyp6Dsfdwm89dj8b-203" value="&amp;nbsp;- snapshot at regular intervals&lt;br&gt;&amp;nbsp;- MAYBE representable with the same structure as above" style="shape=note;strokeWidth=2;fontSize=9;size=20;whiteSpace=wrap;html=1;fillColor=#fff2cc;strokeColor=#d6b656;fontColor=#666600;align=left;" vertex="1" parent="02symyp6Dsfdwm89dj8b-198">
          <mxGeometry x="30" y="40" width="260" height="70" as="geometry" />
        </mxCell>
        <mxCell id="02symyp6Dsfdwm89dj8b-240" value="points to snapshot [ ]" style="shape=process;whiteSpace=wrap;html=1;backgroundOutline=1;" vertex="1" parent="02symyp6Dsfdwm89dj8b-198">
          <mxGeometry x="50" y="170" width="150" height="30" as="geometry" />
        </mxCell>
        <mxCell id="02symyp6Dsfdwm89dj8b-247" style="edgeStyle=orthogonalEdgeStyle;rounded=0;orthogonalLoop=1;jettySize=auto;html=1;exitX=1;exitY=0.25;exitDx=0;exitDy=0;entryX=0;entryY=0.25;entryDx=0;entryDy=0;" edge="1" parent="02symyp6Dsfdwm89dj8b-198" source="02symyp6Dsfdwm89dj8b-241" target="02symyp6Dsfdwm89dj8b-242">
          <mxGeometry relative="1" as="geometry" />
        </mxCell>
        <mxCell id="02symyp6Dsfdwm89dj8b-248" value="key n" style="edgeLabel;html=1;align=center;verticalAlign=middle;resizable=0;points=[];" vertex="1" connectable="0" parent="02symyp6Dsfdwm89dj8b-247">
          <mxGeometry x="0.2571" y="-1" relative="1" as="geometry">
            <mxPoint x="-1" y="12" as="offset" />
          </mxGeometry>
        </mxCell>
        <mxCell id="02symyp6Dsfdwm89dj8b-241" value="key 1&lt;br&gt;key 2&lt;br&gt;...&lt;br&gt;key n" style="shape=internalStorage;whiteSpace=wrap;html=1;backgroundOutline=1;fillColor=none;" vertex="1" parent="02symyp6Dsfdwm89dj8b-198">
          <mxGeometry x="110" y="260" width="80" height="150" as="geometry" />
        </mxCell>
        <mxCell id="02symyp6Dsfdwm89dj8b-242" value="Stored data" style="swimlane;whiteSpace=wrap;html=1;" vertex="1" parent="02symyp6Dsfdwm89dj8b-198">
          <mxGeometry x="290" y="200" width="140" height="160" as="geometry" />
        </mxCell>
        <mxCell id="02symyp6Dsfdwm89dj8b-245" value="start" style="rounded=1;whiteSpace=wrap;html=1;" vertex="1" parent="02symyp6Dsfdwm89dj8b-242">
          <mxGeometry x="10" y="120" width="50" height="22.5" as="geometry" />
        </mxCell>
        <mxCell id="02symyp6Dsfdwm89dj8b-246" value="end" style="rounded=1;whiteSpace=wrap;html=1;dashed=1;" vertex="1" parent="02symyp6Dsfdwm89dj8b-242">
          <mxGeometry x="70" y="120" width="50" height="22.5" as="geometry" />
        </mxCell>
        <mxCell id="02symyp6Dsfdwm89dj8b-251" value="success [ ]" style="shape=process;whiteSpace=wrap;html=1;backgroundOutline=1;" vertex="1" parent="02symyp6Dsfdwm89dj8b-242">
          <mxGeometry x="10" y="30" width="110" height="30" as="geometry" />
        </mxCell>
        <mxCell id="02symyp6Dsfdwm89dj8b-252" value="error [ ] (+ log? + retry count?)" style="shape=process;whiteSpace=wrap;html=1;backgroundOutline=1;" vertex="1" parent="02symyp6Dsfdwm89dj8b-242">
          <mxGeometry x="10" y="76" width="110" height="30" as="geometry" />
        </mxCell>
        <mxCell id="02symyp6Dsfdwm89dj8b-250" style="edgeStyle=orthogonalEdgeStyle;rounded=0;orthogonalLoop=1;jettySize=auto;html=1;exitX=0;exitY=0.5;exitDx=0;exitDy=0;exitPerimeter=0;entryX=1;entryY=0.5;entryDx=0;entryDy=0;dashed=1;endArrow=none;endFill=0;" edge="1" parent="02symyp6Dsfdwm89dj8b-198" source="02symyp6Dsfdwm89dj8b-249" target="02symyp6Dsfdwm89dj8b-240">
          <mxGeometry relative="1" as="geometry" />
        </mxCell>
        <mxCell id="02symyp6Dsfdwm89dj8b-249" value="&amp;nbsp;- might be too large to store&lt;br&gt;&amp;nbsp;- probably need to inject a query service instead" style="shape=note;strokeWidth=2;fontSize=9;size=20;whiteSpace=wrap;html=1;fillColor=#ffe6cc;strokeColor=#d79b00;align=left;" vertex="1" parent="02symyp6Dsfdwm89dj8b-198">
          <mxGeometry x="270" y="120" width="210" height="40" as="geometry" />
        </mxCell>
        <mxCell id="02symyp6Dsfdwm89dj8b-257" style="edgeStyle=orthogonalEdgeStyle;rounded=0;orthogonalLoop=1;jettySize=auto;html=1;entryX=0;entryY=0.5;entryDx=0;entryDy=0;" edge="1" parent="1" source="02symyp6Dsfdwm89dj8b-259" target="02symyp6Dsfdwm89dj8b-256">
          <mxGeometry relative="1" as="geometry">
            <mxPoint x="1420" y="1880" as="sourcePoint" />
          </mxGeometry>
        </mxCell>
        <mxCell id="02symyp6Dsfdwm89dj8b-261" style="edgeStyle=orthogonalEdgeStyle;rounded=0;orthogonalLoop=1;jettySize=auto;html=1;exitX=1;exitY=0.5;exitDx=0;exitDy=0;" edge="1" parent="1" source="02symyp6Dsfdwm89dj8b-256" target="02symyp6Dsfdwm89dj8b-260">
          <mxGeometry relative="1" as="geometry" />
        </mxCell>
        <mxCell id="02symyp6Dsfdwm89dj8b-256" value="Import products&lt;br&gt;Deprecate products" style="rounded=1;whiteSpace=wrap;html=1;" vertex="1" parent="1">
          <mxGeometry x="1550" y="1740" width="120" height="60" as="geometry" />
        </mxCell>
        <mxCell id="02symyp6Dsfdwm89dj8b-259" value="Product Source" style="rounded=0;whiteSpace=wrap;html=1;" vertex="1" parent="1">
          <mxGeometry x="1310" y="1752.5" width="100" height="35" as="geometry" />
        </mxCell>
        <mxCell id="02symyp6Dsfdwm89dj8b-264" style="edgeStyle=orthogonalEdgeStyle;rounded=0;orthogonalLoop=1;jettySize=auto;html=1;exitX=0;exitY=0.5;exitDx=0;exitDy=0;exitPerimeter=0;entryX=0.5;entryY=0;entryDx=0;entryDy=0;" edge="1" parent="1" source="02symyp6Dsfdwm89dj8b-260" target="02symyp6Dsfdwm89dj8b-262">
          <mxGeometry relative="1" as="geometry" />
        </mxCell>
        <mxCell id="02symyp6Dsfdwm89dj8b-270" style="edgeStyle=orthogonalEdgeStyle;rounded=0;orthogonalLoop=1;jettySize=auto;html=1;exitX=1;exitY=0.5;exitDx=0;exitDy=0;exitPerimeter=0;" edge="1" parent="1" source="02symyp6Dsfdwm89dj8b-260" target="02symyp6Dsfdwm89dj8b-269">
          <mxGeometry relative="1" as="geometry" />
        </mxCell>
        <mxCell id="02symyp6Dsfdwm89dj8b-260" value="products" style="shape=cylinder3;whiteSpace=wrap;html=1;boundedLbl=1;backgroundOutline=1;size=15;" vertex="1" parent="1">
          <mxGeometry x="1830" y="1847.5" width="60" height="65" as="geometry" />
        </mxCell>
        <mxCell id="02symyp6Dsfdwm89dj8b-268" style="edgeStyle=orthogonalEdgeStyle;rounded=0;orthogonalLoop=1;jettySize=auto;html=1;exitX=1;exitY=0.5;exitDx=0;exitDy=0;" edge="1" parent="1" source="02symyp6Dsfdwm89dj8b-262" target="02symyp6Dsfdwm89dj8b-266">
          <mxGeometry relative="1" as="geometry" />
        </mxCell>
        <mxCell id="02symyp6Dsfdwm89dj8b-262" value="Import product start date&amp;nbsp;" style="rounded=1;whiteSpace=wrap;html=1;" vertex="1" parent="1">
          <mxGeometry x="1560" y="1967" width="100" height="40" as="geometry" />
        </mxCell>
        <mxCell id="02symyp6Dsfdwm89dj8b-265" style="edgeStyle=orthogonalEdgeStyle;rounded=0;orthogonalLoop=1;jettySize=auto;html=1;exitX=1;exitY=0.5;exitDx=0;exitDy=0;entryX=0;entryY=0.5;entryDx=0;entryDy=0;" edge="1" parent="1" source="02symyp6Dsfdwm89dj8b-263" target="02symyp6Dsfdwm89dj8b-262">
          <mxGeometry relative="1" as="geometry">
            <mxPoint x="1600" y="2048" as="targetPoint" />
          </mxGeometry>
        </mxCell>
        <mxCell id="02symyp6Dsfdwm89dj8b-263" value="Product Start source" style="rounded=0;whiteSpace=wrap;html=1;" vertex="1" parent="1">
          <mxGeometry x="1310" y="1969.5" width="100" height="35" as="geometry" />
        </mxCell>
        <mxCell id="02symyp6Dsfdwm89dj8b-271" style="edgeStyle=orthogonalEdgeStyle;rounded=0;orthogonalLoop=1;jettySize=auto;html=1;exitX=1;exitY=0.5;exitDx=0;exitDy=0;exitPerimeter=0;" edge="1" parent="1" source="02symyp6Dsfdwm89dj8b-266" target="02symyp6Dsfdwm89dj8b-269">
          <mxGeometry relative="1" as="geometry" />
        </mxCell>
        <mxCell id="02symyp6Dsfdwm89dj8b-266" value="Contract Creation Block &amp;amp; date" style="shape=cylinder3;whiteSpace=wrap;html=1;boundedLbl=1;backgroundOutline=1;size=15;" vertex="1" parent="1">
          <mxGeometry x="1780" y="1952" width="110" height="70" as="geometry" />
        </mxCell>
        <mxCell id="02symyp6Dsfdwm89dj8b-273" style="edgeStyle=orthogonalEdgeStyle;rounded=0;orthogonalLoop=1;jettySize=auto;html=1;exitX=0.5;exitY=1;exitDx=0;exitDy=0;exitPerimeter=0;" edge="1" parent="1" source="02symyp6Dsfdwm89dj8b-269" target="02symyp6Dsfdwm89dj8b-272">
          <mxGeometry relative="1" as="geometry" />
        </mxCell>
        <mxCell id="02symyp6Dsfdwm89dj8b-294" style="edgeStyle=orthogonalEdgeStyle;rounded=0;orthogonalLoop=1;jettySize=auto;html=1;exitX=1;exitY=0.5;exitDx=0;exitDy=0;exitPerimeter=0;" edge="1" parent="1" source="02symyp6Dsfdwm89dj8b-269" target="02symyp6Dsfdwm89dj8b-290">
          <mxGeometry relative="1" as="geometry" />
        </mxCell>
        <mxCell id="02symyp6Dsfdwm89dj8b-269" value="dated products&lt;br&gt;to import data from" style="shape=cylinder3;whiteSpace=wrap;html=1;boundedLbl=1;backgroundOutline=1;size=15;dashed=1;" vertex="1" parent="1">
          <mxGeometry x="1960" y="1952" width="110" height="70" as="geometry" />
        </mxCell>
        <mxCell id="02symyp6Dsfdwm89dj8b-275" style="edgeStyle=orthogonalEdgeStyle;rounded=0;orthogonalLoop=1;jettySize=auto;html=1;exitX=1;exitY=0.5;exitDx=0;exitDy=0;" edge="1" parent="1" source="02symyp6Dsfdwm89dj8b-272" target="02symyp6Dsfdwm89dj8b-274">
          <mxGeometry relative="1" as="geometry" />
        </mxCell>
        <mxCell id="02symyp6Dsfdwm89dj8b-272" value="Events import" style="rounded=1;whiteSpace=wrap;html=1;" vertex="1" parent="1">
          <mxGeometry x="1560" y="2099.5" width="100" height="40" as="geometry" />
        </mxCell>
        <mxCell id="02symyp6Dsfdwm89dj8b-282" style="edgeStyle=orthogonalEdgeStyle;rounded=0;orthogonalLoop=1;jettySize=auto;html=1;" edge="1" parent="1" source="02symyp6Dsfdwm89dj8b-274" target="02symyp6Dsfdwm89dj8b-306">
          <mxGeometry relative="1" as="geometry" />
        </mxCell>
        <mxCell id="02symyp6Dsfdwm89dj8b-274" value="Raw Event list" style="shape=cylinder3;whiteSpace=wrap;html=1;boundedLbl=1;backgroundOutline=1;size=15;" vertex="1" parent="1">
          <mxGeometry x="1790" y="2125" width="110" height="70" as="geometry" />
        </mxCell>
        <mxCell id="02symyp6Dsfdwm89dj8b-277" style="edgeStyle=orthogonalEdgeStyle;rounded=0;orthogonalLoop=1;jettySize=auto;html=1;exitX=1;exitY=0.5;exitDx=0;exitDy=0;" edge="1" parent="1" source="02symyp6Dsfdwm89dj8b-276" target="02symyp6Dsfdwm89dj8b-272">
          <mxGeometry relative="1" as="geometry" />
        </mxCell>
        <mxCell id="02symyp6Dsfdwm89dj8b-276" value="Events source" style="rounded=0;whiteSpace=wrap;html=1;" vertex="1" parent="1">
          <mxGeometry x="1310" y="2102" width="100" height="35" as="geometry" />
        </mxCell>
        <mxCell id="02symyp6Dsfdwm89dj8b-283" style="edgeStyle=orthogonalEdgeStyle;rounded=0;orthogonalLoop=1;jettySize=auto;html=1;exitX=0.5;exitY=0;exitDx=0;exitDy=0;exitPerimeter=0;" edge="1" parent="1" source="02symyp6Dsfdwm89dj8b-278" target="02symyp6Dsfdwm89dj8b-281">
          <mxGeometry relative="1" as="geometry">
            <mxPoint x="2130" y="2340" as="targetPoint" />
          </mxGeometry>
        </mxCell>
        <mxCell id="02symyp6Dsfdwm89dj8b-288" style="edgeStyle=orthogonalEdgeStyle;rounded=0;orthogonalLoop=1;jettySize=auto;html=1;" edge="1" parent="1" source="02symyp6Dsfdwm89dj8b-298" target="02symyp6Dsfdwm89dj8b-287">
          <mxGeometry relative="1" as="geometry" />
        </mxCell>
        <mxCell id="02symyp6Dsfdwm89dj8b-309" style="edgeStyle=orthogonalEdgeStyle;rounded=0;orthogonalLoop=1;jettySize=auto;html=1;exitX=1;exitY=0.5;exitDx=0;exitDy=0;exitPerimeter=0;" edge="1" parent="1" source="02symyp6Dsfdwm89dj8b-278" target="02symyp6Dsfdwm89dj8b-287">
          <mxGeometry relative="1" as="geometry" />
        </mxCell>
        <mxCell id="02symyp6Dsfdwm89dj8b-278" value="Event chain data&lt;br&gt;+ ppfs + balance + block datetime" style="shape=cylinder3;whiteSpace=wrap;html=1;boundedLbl=1;backgroundOutline=1;size=15;" vertex="1" parent="1">
          <mxGeometry x="1960" y="2440" width="110" height="90" as="geometry" />
        </mxCell>
        <mxCell id="02symyp6Dsfdwm89dj8b-280" style="edgeStyle=orthogonalEdgeStyle;rounded=0;orthogonalLoop=1;jettySize=auto;html=1;exitX=1;exitY=0.5;exitDx=0;exitDy=0;" edge="1" parent="1" source="02symyp6Dsfdwm89dj8b-279" target="02symyp6Dsfdwm89dj8b-278">
          <mxGeometry relative="1" as="geometry" />
        </mxCell>
        <mxCell id="02symyp6Dsfdwm89dj8b-279" value="Chain event data import" style="rounded=1;whiteSpace=wrap;html=1;" vertex="1" parent="1">
          <mxGeometry x="1560" y="2465" width="100" height="40" as="geometry" />
        </mxCell>
        <mxCell id="02symyp6Dsfdwm89dj8b-284" style="edgeStyle=orthogonalEdgeStyle;rounded=0;orthogonalLoop=1;jettySize=auto;html=1;exitX=0;exitY=0.5;exitDx=0;exitDy=0;exitPerimeter=0;entryX=0.5;entryY=0;entryDx=0;entryDy=0;" edge="1" parent="1" source="02symyp6Dsfdwm89dj8b-281" target="02symyp6Dsfdwm89dj8b-279">
          <mxGeometry relative="1" as="geometry" />
        </mxCell>
        <mxCell id="02symyp6Dsfdwm89dj8b-281" value="events with missing data" style="shape=cylinder3;whiteSpace=wrap;html=1;boundedLbl=1;backgroundOutline=1;size=15;dashed=1;" vertex="1" parent="1">
          <mxGeometry x="1967.5" y="2290" width="95" height="70" as="geometry" />
        </mxCell>
        <mxCell id="02symyp6Dsfdwm89dj8b-286" style="edgeStyle=orthogonalEdgeStyle;rounded=0;orthogonalLoop=1;jettySize=auto;html=1;exitX=1;exitY=0.5;exitDx=0;exitDy=0;" edge="1" parent="1" source="02symyp6Dsfdwm89dj8b-285" target="02symyp6Dsfdwm89dj8b-279">
          <mxGeometry relative="1" as="geometry" />
        </mxCell>
        <mxCell id="02symyp6Dsfdwm89dj8b-285" value="Chain data source" style="rounded=0;whiteSpace=wrap;html=1;" vertex="1" parent="1">
          <mxGeometry x="1310" y="2467.5" width="100" height="35" as="geometry" />
        </mxCell>
        <mxCell id="02symyp6Dsfdwm89dj8b-301" style="edgeStyle=orthogonalEdgeStyle;rounded=0;orthogonalLoop=1;jettySize=auto;html=1;exitX=1;exitY=0.5;exitDx=0;exitDy=0;exitPerimeter=0;entryX=0.5;entryY=1;entryDx=0;entryDy=0;" edge="1" parent="1" source="02symyp6Dsfdwm89dj8b-287" target="02symyp6Dsfdwm89dj8b-290">
          <mxGeometry relative="1" as="geometry" />
        </mxCell>
        <mxCell id="02symyp6Dsfdwm89dj8b-287" value="Block datetime" style="shape=cylinder3;whiteSpace=wrap;html=1;boundedLbl=1;backgroundOutline=1;size=15;dashed=1;" vertex="1" parent="1">
          <mxGeometry x="2167.5" y="2450" width="95" height="70" as="geometry" />
        </mxCell>
        <mxCell id="02symyp6Dsfdwm89dj8b-300" style="edgeStyle=orthogonalEdgeStyle;rounded=0;orthogonalLoop=1;jettySize=auto;html=1;exitX=0;exitY=0.5;exitDx=0;exitDy=0;entryX=1;entryY=0.5;entryDx=0;entryDy=0;entryPerimeter=0;" edge="1" parent="1" source="02symyp6Dsfdwm89dj8b-290" target="02symyp6Dsfdwm89dj8b-298">
          <mxGeometry relative="1" as="geometry" />
        </mxCell>
        <mxCell id="02symyp6Dsfdwm89dj8b-290" value="Chain data snapshot import" style="rounded=1;whiteSpace=wrap;html=1;" vertex="1" parent="1">
          <mxGeometry x="2380" y="2325" width="100" height="40" as="geometry" />
        </mxCell>
        <mxCell id="02symyp6Dsfdwm89dj8b-296" style="edgeStyle=orthogonalEdgeStyle;rounded=0;orthogonalLoop=1;jettySize=auto;html=1;exitX=0;exitY=0.5;exitDx=0;exitDy=0;" edge="1" parent="1" source="02symyp6Dsfdwm89dj8b-295" target="02symyp6Dsfdwm89dj8b-290">
          <mxGeometry relative="1" as="geometry" />
        </mxCell>
        <mxCell id="02symyp6Dsfdwm89dj8b-295" value="Chain data source" style="rounded=0;whiteSpace=wrap;html=1;" vertex="1" parent="1">
          <mxGeometry x="2640" y="2327.5" width="100" height="35" as="geometry" />
        </mxCell>
        <mxCell id="02symyp6Dsfdwm89dj8b-298" value="ppfs snapshots" style="shape=cylinder3;whiteSpace=wrap;html=1;boundedLbl=1;backgroundOutline=1;size=15;" vertex="1" parent="1">
          <mxGeometry x="2160" y="2310" width="110" height="70" as="geometry" />
        </mxCell>
        <mxCell id="02symyp6Dsfdwm89dj8b-304" style="edgeStyle=orthogonalEdgeStyle;rounded=0;orthogonalLoop=1;jettySize=auto;html=1;exitX=1;exitY=0.5;exitDx=0;exitDy=0;" edge="1" parent="1" source="02symyp6Dsfdwm89dj8b-302" target="02symyp6Dsfdwm89dj8b-303">
          <mxGeometry relative="1" as="geometry" />
        </mxCell>
        <mxCell id="02symyp6Dsfdwm89dj8b-302" value="Real time events source" style="rounded=0;whiteSpace=wrap;html=1;" vertex="1" parent="1">
          <mxGeometry x="1310" y="2180" width="100" height="35" as="geometry" />
        </mxCell>
        <mxCell id="02symyp6Dsfdwm89dj8b-305" style="edgeStyle=orthogonalEdgeStyle;rounded=0;orthogonalLoop=1;jettySize=auto;html=1;exitX=1;exitY=0.5;exitDx=0;exitDy=0;" edge="1" parent="1" source="02symyp6Dsfdwm89dj8b-303" target="02symyp6Dsfdwm89dj8b-274">
          <mxGeometry relative="1" as="geometry" />
        </mxCell>
        <mxCell id="02symyp6Dsfdwm89dj8b-303" value="Events import" style="rounded=1;whiteSpace=wrap;html=1;" vertex="1" parent="1">
          <mxGeometry x="1560" y="2177.5" width="100" height="40" as="geometry" />
        </mxCell>
        <mxCell id="02symyp6Dsfdwm89dj8b-307" style="edgeStyle=orthogonalEdgeStyle;rounded=0;orthogonalLoop=1;jettySize=auto;html=1;exitX=0.5;exitY=1;exitDx=0;exitDy=0;exitPerimeter=0;" edge="1" parent="1" source="02symyp6Dsfdwm89dj8b-306" target="02symyp6Dsfdwm89dj8b-281">
          <mxGeometry relative="1" as="geometry" />
        </mxCell>
        <mxCell id="02symyp6Dsfdwm89dj8b-306" value="de-duplicated events" style="shape=cylinder3;whiteSpace=wrap;html=1;boundedLbl=1;backgroundOutline=1;size=15;dashed=1;" vertex="1" parent="1">
          <mxGeometry x="1967.5" y="2125" width="95" height="70" as="geometry" />
        </mxCell>
      </root>
    </mxGraphModel>
  </diagram>
</mxfile>
